<?xml version="1.0" standalone="no"?>
<!DOCTYPE svg PUBLIC "-//W3C//DTD SVG 20010904//EN"
 "http://www.w3.org/TR/2001/REC-SVG-20010904/DTD/svg10.dtd">
<svg version="1.0" xmlns="http://www.w3.org/2000/svg"
 width="625.000000pt" height="182.000000pt" viewBox="0 0 625.000000 182.000000"
 preserveAspectRatio="xMidYMid meet">

<g transform="translate(0.000000,182.000000) scale(0.100000,-0.100000)"
fill="#000000" stroke="none">
<path d="M5131 1444 c-140 -38 -286 -155 -350 -282 -180 -356 60 -777 454
-799 113 -7 184 8 283 57 182 91 302 287 302 490 0 246 -176 472 -416 535 -72
19 -201 18 -273 -1z m196 -213 c38 -111 90 -140 190 -106 51 18 54 18 73 0 30
-28 25 -62 -19 -112 -22 -24 -43 -58 -46 -74 -10 -46 3 -84 46 -132 44 -50 49
-84 19 -112 -20 -18 -23 -18 -76 -1 -35 11 -69 15 -90 12 -41 -8 -80 -53 -94
-109 -15 -60 -23 -72 -54 -75 -38 -5 -52 11 -66 69 -24 101 -85 136 -179 104
-58 -19 -87 -14 -97 18 -12 33 -6 47 36 95 64 73 65 131 1 204 -51 59 -55 73
-27 105 l24 28 52 -19 c97 -35 159 -4 187 94 20 71 29 82 67 78 28 -3 33 -8
53 -67z"/>
<path d="M430 911 l0 -521 135 0 135 0 0 198 0 197 77 -140 c42 -77 90 -165
108 -195 l31 -55 147 -3 c81 -1 147 -1 147 1 0 3 -54 96 -120 208 -66 112
-120 206 -120 209 0 3 21 14 47 24 26 11 67 37 90 59 57 53 78 110 78 217 0
73 -4 93 -28 142 -33 67 -95 125 -163 152 -43 17 -81 20 -306 24 l-258 4 0
-521z m404 295 c51 -21 76 -60 76 -118 0 -41 -5 -54 -28 -78 -27 -27 -100 -50
-157 -50 l-25 0 0 130 0 130 50 0 c28 0 65 -6 84 -14z"/>
<path d="M1270 910 l0 -520 290 0 290 0 0 115 0 115 -160 0 -161 0 3 88 3 87
153 3 153 3 -3 112 -3 112 -152 3 -153 3 0 84 0 85 160 0 160 0 0 115 0 115
-290 0 -290 0 0 -520z"/>
<path d="M1920 910 l0 -520 295 0 295 0 0 115 0 115 -160 0 -160 0 0 405 0
405 -135 0 -135 0 0 -520z"/>
<path d="M2565 1418 c-3 -7 -4 -240 -3 -518 l3 -505 357 -3 357 -2 42 90 42
90 143 0 144 0 0 -90 0 -91 131 3 130 3 -1 308 c0 169 3 307 8 307 5 0 117
-139 251 -310 l242 -310 135 0 134 0 -2 518 -3 517 -132 3 -133 3 -2 -315 -3
-315 -245 314 -245 314 -208 1 -207 0 -202 -405 -203 -405 -132 0 -133 0 0
405 0 405 -130 0 c-95 0 -132 -3 -135 -12z m1085 -473 l0 -165 -100 0 -99 0
46 98 c25 53 60 127 77 164 25 54 35 68 54 68 22 0 22 -1 22 -165z"/>
</g>
</svg>
